<svg width="88" height="88" viewBox="0 0 88 88" fill="none" xmlns="http://www.w3.org/2000/svg" xmlns:xlink="http://www.w3.org/1999/xlink">
<path d="M50.922,8.25C50.922,7.698 50.474,7.25 49.922,7.25C49.369,7.25 48.922,7.698 48.922,8.25L50.922,8.25ZM49.922,37.4L48.922,37.4C48.922,37.831 49.197,38.213 49.606,38.349C50.014,38.485 50.464,38.344 50.722,38L49.922,37.4ZM54.908,30.745L55.708,30.144C55.518,29.893 55.222,29.745 54.907,29.745C54.593,29.745 54.297,29.894 54.108,30.145L54.908,30.745ZM59.913,37.4L59.114,38.001C59.373,38.345 59.823,38.485 60.232,38.348C60.64,38.211 60.915,37.828 60.913,37.397L59.913,37.4ZM60.822,8.265C60.82,7.713 60.371,7.267 59.819,7.268C59.266,7.27 58.82,7.719 58.822,8.271L60.822,8.265ZM23.283,9.25C23.836,9.25 24.283,8.802 24.283,8.25C24.283,7.698 23.836,7.25 23.283,7.25L23.283,9.25ZM23.283,80.75C23.836,80.75 24.283,80.302 24.283,79.75C24.283,79.198 23.836,78.75 23.283,78.75L23.283,80.75ZM48.922,8.25L48.922,37.4L50.922,37.4L50.922,8.25L48.922,8.25ZM50.722,38L55.709,31.345L54.108,30.145L49.121,36.8L50.722,38ZM54.109,31.346L59.114,38.001L60.713,36.799L55.708,30.144L54.109,31.346ZM60.913,37.397L60.822,8.265L58.822,8.271L58.913,37.403L60.913,37.397ZM23.283,7.25L19.067,7.25L19.067,9.25L23.283,9.25L23.283,7.25ZM19.067,7.25C16.498,7.25 14.4,9.348 14.4,11.917L16.4,11.917C16.4,10.452 17.602,9.25 19.067,9.25L19.067,7.25ZM14.4,11.917L14.4,76.083L16.4,76.083L16.4,11.917L14.4,11.917ZM14.4,76.083C14.4,78.652 16.498,80.75 19.067,80.75L19.067,78.75C17.602,78.75 16.4,77.548 16.4,76.083L14.4,76.083ZM19.067,80.75L23.283,80.75L23.283,78.75L19.067,78.75L19.067,80.75Z" fill="#C9A20F"/>
<path d="M23.283,8.25L23.283,7.25C22.731,7.25 22.283,7.698 22.283,8.25L23.283,8.25ZM23.283,79.75L22.283,79.75C22.283,80.302 22.731,80.75 23.283,80.75L23.283,79.75ZM22.283,8.25L22.283,79.75L24.283,79.75L24.283,8.25L22.283,8.25ZM23.283,80.75L68.933,80.75L68.933,78.75L23.283,78.75L23.283,80.75ZM68.933,80.75C71.502,80.75 73.6,78.652 73.6,76.083L71.6,76.083C71.6,77.548 70.398,78.75 68.933,78.75L68.933,80.75ZM73.6,76.083L73.6,11.917L71.6,11.917L71.6,76.083L73.6,76.083ZM73.6,11.917C73.6,9.348 71.502,7.25 68.933,7.25L68.933,9.25C70.398,9.25 71.6,10.452 71.6,11.917L73.6,11.917ZM68.933,7.25L23.283,7.25L23.283,9.25L68.933,9.25L68.933,7.25Z" fill="#C9A20F"/>
</svg>
