<svg width="78" height="78" viewBox="0 0 78 78" fill="none" xmlns="http://www.w3.org/2000/svg" xmlns:xlink="http://www.w3.org/1999/xlink">
<g filter="url(#filter91_1559)">
<path d="M31.323,41.985C33.947,40.884 36.188,39.032 37.763,36.662C39.339,34.292 40.179,31.51 40.178,28.664L40.178,28.6L42.299,29.5C45.723,30.952 49.405,31.701 53.125,31.701C56.845,31.701 60.527,30.952 63.952,29.5L68.781,27.451C72.834,25.735 77.163,29.194 76.415,33.512L71.586,61.026C70.818,65.363 68.547,69.292 65.171,72.122C61.795,74.951 57.53,76.501 53.125,76.5C48.72,76.501 44.455,74.951 41.08,72.122C37.704,69.292 35.432,65.363 34.665,61.026L31.323,41.985ZM53.125,58.98C58.331,58.98 62.86,61.977 65.195,66.377C65.627,67.216 66.875,66.908 66.875,65.956C66.875,65.481 66.848,65.005 66.793,64.499C66.144,57.638 60.666,52.206 53.994,51.783C46.019,51.28 39.375,57.805 39.375,65.956L39.375,65.984C39.375,66.935 40.624,67.216 41.056,66.405C43.39,61.977 47.92,58.98 53.125,58.98ZM51.242,50.207C50.367,48.062 48.464,46.585 46.228,46.585C43.99,46.585 42.087,48.062 41.24,50.207C41.11,50.468 40.775,50.411 40.75,50.122L40.75,49.687C40.75,46.151 43.398,43.28 46.588,43.514C49.314,43.687 51.525,46.151 51.731,49.195C51.758,49.511 51.758,49.83 51.731,50.122C51.703,50.411 51.346,50.468 51.242,50.207ZM60.033,46.585C62.272,46.585 64.175,48.062 65.049,50.207C65.151,50.468 65.511,50.411 65.539,50.122C65.566,49.83 65.566,49.511 65.539,49.192C65.332,46.151 63.119,43.687 60.396,43.514C57.206,43.28 54.558,46.151 54.558,49.687L54.558,50.122C54.585,50.411 54.915,50.468 55.045,50.207C55.894,48.062 57.797,46.585 60.033,46.585Z" clip-rule="evenodd" fill-rule="evenodd" fill="url(#pf_0_91_1560)"/>
</g>
<path d="M31.323,41.985C33.947,40.884 36.188,39.032 37.763,36.662C39.339,34.292 40.179,31.51 40.178,28.664L40.178,28.6L42.299,29.5C45.723,30.952 49.405,31.701 53.125,31.701C56.845,31.701 60.527,30.952 63.952,29.5L68.781,27.451C72.834,25.735 77.163,29.194 76.415,33.512L71.586,61.026C70.818,65.363 68.547,69.292 65.171,72.122C61.795,74.951 57.53,76.501 53.125,76.5C48.72,76.501 44.455,74.951 41.08,72.122C37.704,69.292 35.432,65.363 34.665,61.026L31.323,41.985ZM53.125,58.98C58.331,58.98 62.86,61.977 65.195,66.377C65.627,67.216 66.875,66.908 66.875,65.956C66.875,65.481 66.848,65.005 66.793,64.499C66.144,57.638 60.666,52.206 53.994,51.783C46.019,51.28 39.375,57.805 39.375,65.956L39.375,65.984C39.375,66.935 40.624,67.216 41.056,66.405C43.39,61.977 47.92,58.98 53.125,58.98ZM51.242,50.207C50.367,48.062 48.464,46.585 46.228,46.585C43.99,46.585 42.087,48.062 41.24,50.207C41.11,50.468 40.775,50.411 40.75,50.122L40.75,49.687C40.75,46.151 43.398,43.28 46.588,43.514C49.314,43.687 51.525,46.151 51.731,49.195C51.758,49.511 51.758,49.83 51.731,50.122C51.703,50.411 51.346,50.468 51.242,50.207ZM60.033,46.585C62.272,46.585 64.175,48.062 65.049,50.207C65.151,50.468 65.511,50.411 65.539,50.122C65.566,49.83 65.566,49.511 65.539,49.192C65.332,46.151 63.119,43.687 60.396,43.514C57.206,43.28 54.558,46.151 54.558,49.687L54.558,50.122C54.585,50.411 54.915,50.468 55.045,50.207C55.894,48.062 57.797,46.585 60.033,46.585Z" clip-rule="evenodd" fill-rule="evenodd" fill="url(#pf_0_91_1561)"/>
<path d="M31.323,41.985C33.947,40.884 36.188,39.032 37.763,36.662C39.339,34.292 40.179,31.51 40.178,28.664L40.178,28.6L42.299,29.5C45.723,30.952 49.405,31.701 53.125,31.701C56.845,31.701 60.527,30.952 63.952,29.5L68.781,27.451C72.834,25.735 77.163,29.194 76.415,33.512L71.586,61.026C70.818,65.363 68.547,69.292 65.171,72.122C61.795,74.951 57.53,76.501 53.125,76.5C48.72,76.501 44.455,74.951 41.08,72.122C37.704,69.292 35.432,65.363 34.665,61.026L31.323,41.985ZM53.125,58.98C58.331,58.98 62.86,61.977 65.195,66.377C65.627,67.216 66.875,66.908 66.875,65.956C66.875,65.481 66.848,65.005 66.793,64.499C66.144,57.638 60.666,52.206 53.994,51.783C46.019,51.28 39.375,57.805 39.375,65.956L39.375,65.984C39.375,66.935 40.624,67.216 41.056,66.405C43.39,61.977 47.92,58.98 53.125,58.98ZM51.242,50.207C50.367,48.062 48.464,46.585 46.228,46.585C43.99,46.585 42.087,48.062 41.24,50.207C41.11,50.468 40.775,50.411 40.75,50.122L40.75,49.687C40.75,46.151 43.398,43.28 46.588,43.514C49.314,43.687 51.525,46.151 51.731,49.195C51.758,49.511 51.758,49.83 51.731,50.122C51.703,50.411 51.346,50.468 51.242,50.207ZM60.033,46.585C62.272,46.585 64.175,48.062 65.049,50.207C65.151,50.468 65.511,50.411 65.539,50.122C65.566,49.83 65.566,49.511 65.539,49.192C65.332,46.151 63.119,43.687 60.396,43.514C57.206,43.28 54.558,46.151 54.558,49.687L54.558,50.122C54.585,50.411 54.915,50.468 55.045,50.207C55.894,48.062 57.797,46.585 60.033,46.585Z" clip-rule="evenodd" fill-rule="evenodd" fill="url(#pf_0_91_1562)"/>
<g filter="url(#filter91_1563)">
<path d="M33.724,1.997L38.553,-0.052C42.606,-1.768 46.935,1.692 46.159,6.012L41.328,33.526C40.56,37.862 38.29,41.79 34.915,44.62C31.54,47.45 27.277,49 22.872,49C18.468,49.001 14.204,47.45 10.828,44.621C7.453,41.791 5.182,37.863 4.414,33.526L-0.415,6.012C-1.165,1.695 3.166,-1.768 7.219,-0.052L12.076,1.997C15.5,3.449 19.181,4.198 22.9,4.198C26.619,4.198 30.3,3.449 33.724,1.997ZM9.601,27.462C12.167,31.458 17.147,34.18 22.875,34.18C28.603,34.18 33.586,31.458 36.149,27.435C36.628,26.695 38,26.951 38,27.817L38,27.842C38,35.25 30.691,41.185 21.921,40.725C14.581,40.343 8.556,35.404 7.841,29.164C7.782,28.726 7.752,28.284 7.75,27.842C7.75,26.975 9.122,26.695 9.601,27.459M16,19.083C18.239,19.083 20.142,20.56 21.016,22.705C21.118,22.966 21.453,22.908 21.478,22.619C21.506,22.3 21.506,22.012 21.478,21.69C21.272,18.648 19.061,16.184 16.336,16.011C13.148,15.78 10.5,18.651 10.5,22.188L10.5,22.622C10.528,22.911 10.858,22.969 10.99,22.707C11.864,20.562 13.767,19.086 16.003,19.086M34.744,22.707C33.87,20.562 31.972,19.086 29.739,19.086C27.509,19.086 25.611,20.562 24.737,22.707C24.61,22.969 24.275,22.911 24.25,22.622L24.25,22.188C24.25,18.651 26.89,15.78 30.099,16.014C32.819,16.187 35.025,18.651 35.231,21.693C35.258,22.014 35.258,22.331 35.231,22.622C35.203,22.911 34.846,22.969 34.744,22.707Z" clip-rule="evenodd" fill-rule="evenodd" fill="url(#pf_0_91_1564)"/>
</g>
<path d="M33.724,1.997L38.553,-0.052C42.606,-1.768 46.935,1.692 46.159,6.012L41.328,33.526C40.56,37.862 38.29,41.79 34.915,44.62C31.54,47.45 27.277,49 22.872,49C18.468,49.001 14.204,47.45 10.828,44.621C7.453,41.791 5.182,37.863 4.414,33.526L-0.415,6.012C-1.165,1.695 3.166,-1.768 7.219,-0.052L12.076,1.997C15.5,3.449 19.181,4.198 22.9,4.198C26.619,4.198 30.3,3.449 33.724,1.997ZM9.601,27.462C12.167,31.458 17.147,34.18 22.875,34.18C28.603,34.18 33.586,31.458 36.149,27.435C36.628,26.695 38,26.951 38,27.817L38,27.842C38,35.25 30.691,41.185 21.921,40.725C14.581,40.343 8.556,35.404 7.841,29.164C7.782,28.726 7.752,28.284 7.75,27.842C7.75,26.975 9.122,26.695 9.601,27.459M16,19.083C18.239,19.083 20.142,20.56 21.016,22.705C21.118,22.966 21.453,22.908 21.478,22.619C21.506,22.3 21.506,22.012 21.478,21.69C21.272,18.648 19.061,16.184 16.336,16.011C13.148,15.78 10.5,18.651 10.5,22.188L10.5,22.622C10.528,22.911 10.858,22.969 10.99,22.707C11.864,20.562 13.767,19.086 16.003,19.086M34.744,22.707C33.87,20.562 31.972,19.086 29.739,19.086C27.509,19.086 25.611,20.562 24.737,22.707C24.61,22.969 24.275,22.911 24.25,22.622L24.25,22.188C24.25,18.651 26.89,15.78 30.099,16.014C32.819,16.187 35.025,18.651 35.231,21.693C35.258,22.014 35.258,22.331 35.231,22.622C35.203,22.911 34.846,22.969 34.744,22.707Z" clip-rule="evenodd" fill-rule="evenodd" fill="url(#pf_0_91_1565)"/>
<path d="M33.724,1.997L38.553,-0.052C42.606,-1.768 46.935,1.692 46.159,6.012L41.328,33.526C40.56,37.862 38.29,41.79 34.915,44.62C31.54,47.45 27.277,49 22.872,49C18.468,49.001 14.204,47.45 10.828,44.621C7.453,41.791 5.182,37.863 4.414,33.526L-0.415,6.012C-1.165,1.695 3.166,-1.768 7.219,-0.052L12.076,1.997C15.5,3.449 19.181,4.198 22.9,4.198C26.619,4.198 30.3,3.449 33.724,1.997ZM9.601,27.462C12.167,31.458 17.147,34.18 22.875,34.18C28.603,34.18 33.586,31.458 36.149,27.435C36.628,26.695 38,26.951 38,27.817L38,27.842C38,35.25 30.691,41.185 21.921,40.725C14.581,40.343 8.556,35.404 7.841,29.164C7.782,28.726 7.752,28.284 7.75,27.842C7.75,26.975 9.122,26.695 9.601,27.459M16,19.083C18.239,19.083 20.142,20.56 21.016,22.705C21.118,22.966 21.453,22.908 21.478,22.619C21.506,22.3 21.506,22.012 21.478,21.69C21.272,18.648 19.061,16.184 16.336,16.011C13.148,15.78 10.5,18.651 10.5,22.188L10.5,22.622C10.528,22.911 10.858,22.969 10.99,22.707C11.864,20.562 13.767,19.086 16.003,19.086M34.744,22.707C33.87,20.562 31.972,19.086 29.739,19.086C27.509,19.086 25.611,20.562 24.737,22.707C24.61,22.969 24.275,22.911 24.25,22.622L24.25,22.188C24.25,18.651 26.89,15.78 30.099,16.014C32.819,16.187 35.025,18.651 35.231,21.693C35.258,22.014 35.258,22.331 35.231,22.622C35.203,22.911 34.846,22.969 34.744,22.707Z" clip-rule="evenodd" fill-rule="evenodd" fill="url(#pf_0_91_1566)"/>
<path d="M33.724,1.997L38.553,-0.052C42.606,-1.768 46.935,1.692 46.159,6.012L41.328,33.526C40.56,37.862 38.29,41.79 34.915,44.62C31.54,47.45 27.277,49 22.872,49C18.468,49.001 14.204,47.45 10.828,44.621C7.453,41.791 5.182,37.863 4.414,33.526L-0.415,6.012C-1.165,1.695 3.166,-1.768 7.219,-0.052L12.076,1.997C15.5,3.449 19.181,4.198 22.9,4.198C26.619,4.198 30.3,3.449 33.724,1.997ZM9.601,27.462C12.167,31.458 17.147,34.18 22.875,34.18C28.603,34.18 33.586,31.458 36.149,27.435C36.628,26.695 38,26.951 38,27.817L38,27.842C38,35.25 30.691,41.185 21.921,40.725C14.581,40.343 8.556,35.404 7.841,29.164C7.782,28.726 7.752,28.284 7.75,27.842C7.75,26.975 9.122,26.695 9.601,27.459M16,19.083C18.239,19.083 20.142,20.56 21.016,22.705C21.118,22.966 21.453,22.908 21.478,22.619C21.506,22.3 21.506,22.012 21.478,21.69C21.272,18.648 19.061,16.184 16.336,16.011C13.148,15.78 10.5,18.651 10.5,22.188L10.5,22.622C10.528,22.911 10.858,22.969 10.99,22.707C11.864,20.562 13.767,19.086 16.003,19.086M34.744,22.707C33.87,20.562 31.972,19.086 29.739,19.086C27.509,19.086 25.611,20.562 24.737,22.707C24.61,22.969 24.275,22.911 24.25,22.622L24.25,22.188C24.25,18.651 26.89,15.78 30.099,16.014C32.819,16.187 35.025,18.651 35.231,21.693C35.258,22.014 35.258,22.331 35.231,22.622C35.203,22.911 34.846,22.969 34.744,22.707Z" clip-rule="evenodd" fill-rule="evenodd" fill="url(#pf_0_91_1567)"/>
<defs>
<filter id="filter91_1559" x="31.323242" y="27.002197" width="22.738345" height="24.848886" filterUnits="userSpaceOnUse" color-interpolation-filters="sRGB">
<feFlood flood-opacity="0" result="BackgroundImageFix"/>
<feBlend mode="normal" in="SourceGraphic" in2="BackgroundImageFix" result="shape"/>
<feColorMatrix in="SourceAlpha" type="matrix" values="0 0 0 0 0 0 0 0 0 0 0 0 0 0 0 0 0 0 127 0" result="hardAlpha"/>
<feMorphology radius="0" operator="erode" in="SourceAlpha" result="0innershadow"/>
<feOffset dx="0.15" dy="-0.15"/>
<feGaussianBlur stdDeviation="0.25"/>
<feComposite in2="hardAlpha" operator="arithmetic" k2="-1" k3="1"/>
<feColorMatrix type="matrix" values="0 0 0 0 0.913725 0 0 0 0 0.498039 0 0 0 0 0.431373 0 0 0 1 0"/>
<feBlend mode="normal" in2="shape" result="0innershadow"/>
<feColorMatrix in="SourceAlpha" type="matrix" values="0 0 0 0 0 0 0 0 0 0 0 0 0 0 0 0 0 0 127 0" result="hardAlpha"/>
<feMorphology radius="0" operator="erode" in="SourceAlpha" result="1innershadow"/>
<feOffset dx="0" dy="0.1"/>
<feGaussianBlur stdDeviation="0.2"/>
<feComposite in2="hardAlpha" operator="arithmetic" k2="-1" k3="1"/>
<feColorMatrix type="matrix" values="0 0 0 0 0.854902 0 0 0 0 0.631373 0 0 0 0 0.4 0 0 0 1 0"/>
<feBlend mode="normal" in2="0innershadow" result="1innershadow"/>
</filter>
<linearGradient id="pf_0_91_1560" x1="33.655" y1="56.389" x2="73.016" y2="56.389" gradientUnits="userSpaceOnUse">
<stop stop-color="#F89552"/>
<stop offset="1" stop-color="#FFD350"/>
</linearGradient>
<radialGradient id="pf_0_91_1561" cx="0" cy="0" r="1" gradientUnits="userSpaceOnUse" gradientTransform="matrix(-6.232408 7.90691 -7.216826 -5.688457 37.865 13.5)">
<stop stop-color="#FFDA4D"/>
<stop offset="1" stop-color="#FFDA4D" stop-opacity="0"/>
</radialGradient>
<radialGradient id="pf_0_91_1562" cx="0" cy="0" r="1" gradientUnits="userSpaceOnUse" gradientTransform="matrix(2.626506 5.030456 -6.969899 3.63913 17.919 18.114)">
<stop stop-color="#DD9643"/>
<stop offset="1" stop-color="#DD9643" stop-opacity="0"/>
</radialGradient>
<filter id="filter91_1563" x="-0.5" y="-0.500488" width="23.575177" height="24.950252" filterUnits="userSpaceOnUse" color-interpolation-filters="sRGB">
<feFlood flood-opacity="0" result="BackgroundImageFix"/>
<feBlend mode="normal" in="SourceGraphic" in2="BackgroundImageFix" result="shape"/>
<feColorMatrix in="SourceAlpha" type="matrix" values="0 0 0 0 0 0 0 0 0 0 0 0 0 0 0 0 0 0 127 0" result="hardAlpha"/>
<feMorphology radius="0" operator="erode" in="SourceAlpha" result="0innershadow"/>
<feOffset dx="0" dy="-0.2"/>
<feGaussianBlur stdDeviation="0.2"/>
<feComposite in2="hardAlpha" operator="arithmetic" k2="-1" k3="1"/>
<feColorMatrix type="matrix" values="0 0 0 0 0.423529 0 0 0 0 0.533333 0 0 0 0 1 0 0 0 1 0"/>
<feBlend mode="normal" in2="shape" result="0innershadow"/>
<feColorMatrix in="SourceAlpha" type="matrix" values="0 0 0 0 0 0 0 0 0 0 0 0 0 0 0 0 0 0 127 0" result="hardAlpha"/>
<feMorphology radius="0" operator="erode" in="SourceAlpha" result="1innershadow"/>
<feOffset dx="0" dy="0.2"/>
<feGaussianBlur stdDeviation="0.2"/>
<feComposite in2="hardAlpha" operator="arithmetic" k2="-1" k3="1"/>
<feColorMatrix type="matrix" values="0 0 0 0 0.282353 0 0 0 0 0.592157 0 0 0 0 0.972549 0 0 0 1 0"/>
<feBlend mode="normal" in2="0innershadow" result="1innershadow"/>
<feColorMatrix in="SourceAlpha" type="matrix" values="0 0 0 0 0 0 0 0 0 0 0 0 0 0 0 0 0 0 127 0" result="hardAlpha"/>
<feMorphology radius="0" operator="erode" in="SourceAlpha" result="2innershadow"/>
<feOffset dx="0.2" dy="-0.2"/>
<feGaussianBlur stdDeviation="0.2"/>
<feComposite in2="hardAlpha" operator="arithmetic" k2="-1" k3="1"/>
<feColorMatrix type="matrix" values="0 0 0 0 0.290196 0 0 0 0 0.458824 0 0 0 0 1 0 0 0 1 0"/>
<feBlend mode="normal" in2="1innershadow" result="2innershadow"/>
</filter>
<linearGradient id="pf_0_91_1564" x1="10.484" y1="24.25" x2="40.635" y2="24.25" gradientUnits="userSpaceOnUse">
<stop offset="0.163" stop-color="#3A8FFF"/>
<stop offset="1" stop-color="#66D1FF"/>
</linearGradient>
<radialGradient id="pf_0_91_1565" cx="0" cy="0" r="1" gradientUnits="userSpaceOnUse" gradientTransform="matrix(-7.758505 7.132812 -8.015121 -8.718215 23.125 0.438)">
<stop stop-color="#68DBFF"/>
<stop offset="1" stop-color="#68DBFF" stop-opacity="0"/>
</radialGradient>
<radialGradient id="pf_0_91_1566" cx="0" cy="0" r="1" gradientUnits="userSpaceOnUse" gradientTransform="matrix(4.01493 5.84375 -7.494491 5.149072 -0.25 -0.25)">
<stop stop-color="#287FDA"/>
<stop offset="1" stop-color="#287FDA" stop-opacity="0"/>
</radialGradient>
<linearGradient id="pf_0_91_1567" x1="2.55" y1="24.069" x2="3.752" y2="23.876" gradientUnits="userSpaceOnUse">
<stop stop-color="#3672E7"/>
<stop offset="1" stop-color="#3672E7" stop-opacity="0"/>
</linearGradient>
</defs>
</svg>
