<svg width="50" height="50" viewBox="0 0 50 50" fill="none" xmlns="http://www.w3.org/2000/svg" xmlns:xlink="http://www.w3.org/1999/xlink">
<path d="M24,0C17.216,0 16.362,0.031 13.697,0.15C11.031,0.275 9.216,0.694 7.625,1.313C5.956,1.939 4.444,2.923 3.197,4.197C1.923,5.444 0.939,6.956 0.313,8.625C-0.306,10.212 -0.728,12.031 -0.85,14.688C-0.969,17.359 -1,18.209 -1,25.003C-1,31.791 -0.969,32.641 -0.85,35.306C-0.725,37.969 -0.306,39.784 0.313,41.375C0.953,43.019 1.806,44.412 3.197,45.803C4.584,47.194 5.978,48.05 7.622,48.688C9.216,49.306 11.028,49.728 13.691,49.85C16.359,49.969 17.209,50 24,50C30.791,50 31.638,49.969 34.306,49.85C36.966,49.725 38.788,49.306 40.378,48.688C42.046,48.061 43.557,47.076 44.803,45.803C46.194,44.412 47.047,43.019 47.688,41.375C48.303,39.784 48.725,37.969 48.85,35.306C48.969,32.641 49,31.791 49,25C49,18.209 48.969,17.359 48.85,14.691C48.725,12.031 48.303,10.212 47.688,8.625C47.061,6.956 46.077,5.444 44.803,4.197C43.556,2.923 42.044,1.939 40.375,1.313C38.781,0.694 36.963,0.272 34.303,0.15C31.634,0.031 30.788,0 23.994,0L24,0ZM21.759,4.506L24.003,4.506C30.678,4.506 31.469,4.528 34.103,4.65C36.541,4.759 37.866,5.169 38.747,5.509C39.912,5.962 40.747,6.506 41.622,7.381C42.497,8.256 43.038,9.087 43.491,10.256C43.834,11.134 44.241,12.459 44.35,14.897C44.472,17.531 44.497,18.322 44.497,24.994C44.497,31.666 44.472,32.459 44.35,35.094C44.241,37.531 43.831,38.853 43.491,39.734C43.087,40.818 42.448,41.799 41.619,42.606C40.744,43.481 39.913,44.022 38.744,44.475C37.869,44.819 36.544,45.225 34.103,45.338C31.469,45.456 30.678,45.484 24.003,45.484C17.328,45.484 16.534,45.456 13.9,45.338C11.462,45.225 10.141,44.819 9.259,44.475C8.174,44.073 7.192,43.434 6.384,42.606C5.554,41.799 4.914,40.817 4.509,39.731C4.169,38.853 3.759,37.528 3.65,35.091C3.531,32.456 3.506,31.666 3.506,24.987C3.506,18.309 3.531,17.525 3.65,14.891C3.763,12.453 4.169,11.128 4.513,10.247C4.966,9.081 5.509,8.247 6.384,7.372C7.259,6.497 8.091,5.956 9.259,5.503C10.141,5.159 11.462,4.753 13.9,4.641C16.206,4.534 17.1,4.503 21.759,4.5L21.759,4.506ZM37.347,8.656C36.953,8.656 36.563,8.734 36.199,8.885C35.835,9.035 35.504,9.256 35.226,9.535C34.947,9.814 34.726,10.144 34.575,10.508C34.424,10.872 34.347,11.262 34.347,11.656C34.347,12.05 34.424,12.44 34.575,12.804C34.726,13.168 34.947,13.499 35.226,13.778C35.504,14.056 35.835,14.277 36.199,14.428C36.563,14.579 36.953,14.656 37.347,14.656C38.143,14.656 38.906,14.34 39.468,13.778C40.031,13.215 40.347,12.452 40.347,11.656C40.347,10.861 40.031,10.098 39.468,9.535C38.906,8.972 38.143,8.656 37.347,8.656ZM24.003,12.163C22.3,12.136 20.609,12.448 19.028,13.082C17.447,13.715 16.008,14.656 14.794,15.851C13.581,17.046 12.617,18.471 11.959,20.041C11.301,21.612 10.962,23.298 10.962,25.002C10.962,26.705 11.301,28.391 11.959,29.962C12.617,31.533 13.581,32.957 14.794,34.152C16.008,35.347 17.447,36.288 19.028,36.921C20.609,37.555 22.3,37.867 24.003,37.841C27.374,37.788 30.588,36.412 32.953,34.01C35.318,31.608 36.643,28.372 36.643,25.002C36.643,21.631 35.318,18.395 32.953,15.993C30.588,13.591 27.374,12.215 24.003,12.163ZM24.003,16.666C25.098,16.666 26.181,16.881 27.193,17.3C28.204,17.719 29.123,18.333 29.896,19.107C30.67,19.881 31.284,20.799 31.703,21.811C32.122,22.822 32.338,23.906 32.338,25C32.338,26.094 32.122,27.178 31.703,28.189C31.284,29.201 30.67,30.119 29.896,30.893C29.123,31.667 28.204,32.281 27.193,32.7C26.181,33.119 25.098,33.334 24.003,33.334C21.793,33.334 19.673,32.456 18.11,30.893C16.547,29.33 15.669,27.21 15.669,25C15.669,22.79 16.547,20.67 18.11,19.107C19.673,17.544 21.793,16.666 24.003,16.666Z" fill="#466692"/>
</svg>
