<svg width="68" height="74" viewBox="0 0 68 74" fill="none" xmlns="http://www.w3.org/2000/svg" xmlns:xlink="http://www.w3.org/1999/xlink">
<path d="M30.333,-0.667C37.456,-0.668 44.337,1.923 49.69,6.622C55.043,11.322 58.503,17.808 59.425,24.872L67.675,37.848C68.217,38.702 68.107,39.975 66.85,40.517L59.667,43.59L59.667,54.333C59.667,56.278 58.894,58.143 57.519,59.519C56.143,60.894 54.278,61.667 52.333,61.667L45.004,61.667L45,72.667L12,72.667L12,59.122C12,54.795 10.401,50.7 7.435,47.004C3.98,42.69 1.814,37.487 1.187,31.996C0.559,26.505 1.496,20.948 3.889,15.966C6.282,10.984 10.034,6.779 14.713,3.836C19.392,0.894 24.806,-0.667 30.333,-0.667ZM30.333,6.667C26.188,6.666 22.128,7.837 18.619,10.044C15.111,12.251 12.297,15.404 10.502,19.14C8.707,22.876 8.004,27.043 8.474,31.161C8.944,35.279 10.568,39.181 13.159,42.417C17.17,47.418 19.333,53.112 19.333,59.122L19.333,65.333L37.667,65.333L37.674,54.333L52.333,54.333L52.333,38.757L58.017,36.323L52.359,27.431L52.15,25.81C51.457,20.515 48.861,15.653 44.846,12.13C40.832,8.608 35.674,6.666 30.333,6.667ZM28.39,20.464L30.333,22.408L32.277,20.464C33.487,19.295 35.107,18.648 36.79,18.662C38.472,18.677 40.082,19.351 41.272,20.541C42.462,21.73 43.137,23.339 43.152,25.022C43.167,26.704 42.52,28.325 41.352,29.536L30.333,40.558L19.315,29.536C18.702,28.943 18.214,28.235 17.877,27.452C17.541,26.669 17.364,25.827 17.357,24.975C17.35,24.123 17.513,23.279 17.835,22.49C18.158,21.702 18.635,20.985 19.237,20.383C19.84,19.78 20.556,19.304 21.345,18.982C22.134,18.659 22.979,18.497 23.831,18.505C24.683,18.512 25.525,18.689 26.307,19.026C27.09,19.362 27.798,19.851 28.39,20.464Z" fill="#B81C1C"/>
</svg>
