<svg width="50" height="36" viewBox="0 0 50 36" fill="none" xmlns="http://www.w3.org/2000/svg" xmlns:xlink="http://www.w3.org/1999/xlink">
<path d="M24.159,0.247L24.438,0.247C27.006,0.256 40.022,0.35 43.531,1.294C44.592,1.582 45.559,2.143 46.335,2.922C47.111,3.701 47.669,4.67 47.953,5.731C48.269,6.919 48.491,8.491 48.641,10.113L48.672,10.438L48.741,11.25L48.766,11.575C48.969,14.431 48.994,17.106 48.997,17.691L48.997,17.925C48.994,18.531 48.966,21.388 48.741,24.363L48.716,24.691L48.687,25.016C48.531,26.803 48.3,28.578 47.953,29.885C47.669,30.946 47.111,31.915 46.335,32.694C45.559,33.473 44.592,34.034 43.531,34.322C39.906,35.297 26.128,35.366 24.219,35.369L23.775,35.369C22.809,35.369 18.816,35.35 14.628,35.206L14.097,35.188L13.825,35.175L13.291,35.153L12.756,35.131C9.288,34.978 5.984,34.731 4.462,34.319C3.402,34.031 2.435,33.47 1.66,32.692C0.884,31.914 0.325,30.946 0.041,29.885C-0.306,28.581 -0.538,26.803 -0.694,25.016L-0.719,24.688L-0.744,24.363C-0.899,22.245 -0.984,20.123 -1,18L-1,17.616C-0.994,16.944 -0.969,14.622 -0.8,12.06L-0.778,11.738L-0.769,11.575L-0.744,11.25L-0.675,10.438L-0.644,10.113C-0.494,8.491 -0.272,6.916 0.044,5.731C0.328,4.67 0.886,3.701 1.662,2.922C2.438,2.143 3.405,1.582 4.466,1.294C5.987,0.888 9.291,0.638 12.759,0.481L13.291,0.46L13.828,0.441L14.097,0.431L14.631,0.41C17.605,0.314 20.581,0.261 23.556,0.25L24.159,0.247ZM19,10.278L19,25.335L31.991,17.81L19,10.278Z" fill="#466692"/>
</svg>
