<svg width="28" height="16" viewBox="0 0 28 16" fill="none" xmlns="http://www.w3.org/2000/svg" xmlns:xlink="http://www.w3.org/1999/xlink">
<path d="M27.414,2.414C28.195,1.633 28.195,0.367 27.414,-0.414C26.633,-1.195 25.367,-1.195 24.586,-0.414L27.414,2.414ZM14,13L12.586,14.414C13.367,15.195 14.633,15.195 15.414,14.414L14,13ZM3.414,-0.414C2.633,-1.195 1.367,-1.195 0.586,-0.414C-0.195,0.367 -0.195,1.633 0.586,2.414L3.414,-0.414ZM24.586,-0.414L12.586,11.586L15.414,14.414L27.414,2.414L24.586,-0.414ZM15.414,11.586L3.414,-0.414L0.586,2.414L12.586,14.414L15.414,11.586Z" fill="#FFFFFF"/>
</svg>
