<svg width="40" height="40" viewBox="0 0 40 40" fill="none" xmlns="http://www.w3.org/2000/svg" xmlns:xlink="http://www.w3.org/1999/xlink">
<path d="M38.081,36.959L28.693,27.573C34.346,20.786 33.661,10.754 27.138,4.799C20.616,-1.156 10.563,-0.928 4.317,5.318C-1.928,11.563 -2.156,21.616 3.799,28.139C9.754,34.661 19.786,35.346 26.573,29.693L35.959,39.082C36.545,39.668 37.495,39.668 38.081,39.082C38.667,38.495 38.667,37.545 38.081,36.959ZM2.52,17.02C2.52,9.564 8.564,3.52 16.02,3.52C23.476,3.52 29.52,9.564 29.52,17.02C29.52,24.476 23.476,30.52 16.02,30.52C8.568,30.512 2.528,24.473 2.52,17.02Z" clip-rule="evenodd" fill-rule="evenodd" fill="#61758A"/>
</svg>
