<svg width="70" height="64" viewBox="0 0 70 64" fill="none" xmlns="http://www.w3.org/2000/svg" xmlns:xlink="http://www.w3.org/1999/xlink">
<path d="M65,0.333L65,7.667L-1,7.667L-1,0.333L65,0.333ZM-1,44.333L32,44.333L32,37L-1,37L-1,44.333ZM-1,26L65,26L65,18.667L-1,18.667L-1,26ZM54,33.333C55.945,33.333 57.81,34.106 59.185,35.481C60.561,36.856 61.333,38.722 61.333,40.667C61.333,42.611 60.561,44.477 59.185,45.852C57.81,47.227 55.945,48 54,48C49.93,48 46.667,44.737 46.667,40.667C46.667,36.597 49.967,33.333 54,33.333ZM39.333,62.667L39.333,59C39.333,54.967 45.897,51.667 54,51.667C62.103,51.667 68.667,54.967 68.667,59L68.667,62.667L39.333,62.667Z" fill="#4A75FF"/>
</svg>
