<svg width="50" height="50" viewBox="0 0 50 50" fill="none" xmlns="http://www.w3.org/2000/svg" xmlns:xlink="http://www.w3.org/1999/xlink">
<path d="M49,25.153C49,11.261 37.808,0 24.003,0C10.192,0.003 -1,11.261 -1,25.156C-1,37.708 8.143,48.113 20.091,50L20.091,32.424L13.748,32.424L13.748,25.156L20.097,25.156L20.097,19.61C20.097,13.308 23.831,9.827 29.54,9.827C32.277,9.827 35.136,10.317 35.136,10.317L35.136,16.504L31.983,16.504C28.881,16.504 27.912,18.445 27.912,20.435L27.912,25.153L34.842,25.153L33.736,32.421L27.909,32.421L27.909,49.997C39.857,48.11 49,37.705 49,25.153Z" fill="#466692"/>
</svg>
